HIERARCHY
ROOT Hips
{
	OFFSET -0.001795 -0.223333 0.028219
	CHANNELS 6 Xposition Yposition Zposition Zrotation Yrotation Xrotation 
	JOINT LeftUpLeg
	{
		OFFSET 0.069520 -0.091406 -0.006815
		CHANNELS 3 Zrotation Yrotation Xrotation
		JOINT LeftLeg
		{
			OFFSET 0.034277 -0.375199 -0.004496
			CHANNELS 3 Zrotation Yrotation Xrotation
			JOINT LeftFoot
			{
				OFFSET -0.013596 -0.397961 -0.043693
				CHANNELS 3 Zrotation Yrotation Xrotation
				JOINT LeftToe
				{
					OFFSET 0.026358 -0.055791 0.119288
					CHANNELS 3 Zrotation Yrotation Xrotation
					End Site
					{
						OFFSET 0.000000 0.000000 0.000000
					}
				}
			}
		}
	}
	JOINT RightUpLeg
	{
		OFFSET -0.067670 -0.090522 -0.004320
		CHANNELS 3 Zrotation Yrotation Xrotation
		JOINT RightLeg
		{
			OFFSET -0.038290 -0.382569 -0.008850
			CHANNELS 3 Zrotation Yrotation Xrotation
			JOINT RightFoot
			{
				OFFSET 0.015774 -0.398415 -0.042312
				CHANNELS 3 Zrotation Yrotation Xrotation
				JOINT RightToe
				{
					OFFSET -0.025372 -0.048144 0.123348
					CHANNELS 3 Zrotation Yrotation Xrotation
					End Site
					{
						OFFSET 0.000000 0.000000 0.000000
					}
				}
			}
		}
	}
	JOINT Spine
	{
		OFFSET -0.002533 0.108963 -0.026696
		CHANNELS 3 Zrotation Yrotation Xrotation
		JOINT Spine1
		{
			OFFSET 0.005487 0.135180 0.001092
			CHANNELS 3 Zrotation Yrotation Xrotation
			JOINT Spine2
			{
				OFFSET 0.001457 0.052922 0.025425
				CHANNELS 3 Zrotation Yrotation Xrotation
				JOINT Neck
				{
					OFFSET -0.002778 0.213870 -0.042857
					CHANNELS 3 Zrotation Yrotation Xrotation
					JOINT Head
					{
						OFFSET 0.005152 0.064970 0.051349
						CHANNELS 3 Zrotation Yrotation Xrotation
						End Site
						{
							OFFSET 0.000000 0.000000 0.000000
						}
					}
				}
				JOINT LeftShoulder
				{
					OFFSET 0.078845 0.121749 -0.034090
					CHANNELS 3 Zrotation Yrotation Xrotation
					JOINT LeftArm
					{
						OFFSET 0.090977 0.030469 -0.008868
						CHANNELS 3 Zrotation Yrotation Xrotation
						JOINT LeftForeArm
						{
							OFFSET 0.259612 -0.012772 -0.027456
							CHANNELS 3 Zrotation Yrotation Xrotation
							JOINT LeftHand
							{
								OFFSET 0.249234 0.008986 -0.001171
								CHANNELS 3 Zrotation Yrotation Xrotation
								End Site
								{
									OFFSET 0.000000 0.000000 0.000000
								}
							}
						}
					}
				}
				JOINT RightShoulder
				{
					OFFSET -0.081759 0.118833 -0.038615
					CHANNELS 3 Zrotation Yrotation Xrotation
					JOINT RightArm
					{
						OFFSET -0.096012 0.032551 -0.009143
						CHANNELS 3 Zrotation Yrotation Xrotation
						JOINT RightForeArm
						{
							OFFSET -0.253742 -0.013329 -0.021401
							CHANNELS 3 Zrotation Yrotation Xrotation
							JOINT RightHand
							{
								OFFSET -0.255298 0.007772 -0.005559
								CHANNELS 3 Zrotation Yrotation Xrotation
								End Site
								{
									OFFSET 0.000000 0.000000 0.000000
								}
							}
						}
					}
				}
			}
		}
	}
}
MOTION
Frames: 17
Frame Time: 0.050000
-0.602894 0.952359 0.629133 1.997159 13.203743 4.020198 12.189853 -0.600899 -10.475579 -4.158664 0.186319 9.944319 0.897708 8.015274 13.422249 0.000000 0.000000 0.000000 -6.654695 0.414839 -15.816603 6.383748 -1.424666 12.800851 -10.569659 -22.696851 15.102478 0.000000 0.000000 0.000000 3.232676 -3.730415 32.566180 9.833359 -2.629904 -14.254373 9.239258 9.464407 26.320378 8.937180 -1.306637 -24.808251 0.000000 0.000000 0.000000 -23.955703 -13.705462 1.237713 -42.944496 -18.270132 0.562626 -67.431456 -77.088702 56.159207 0.000000 0.000000 0.000000 7.127234 29.063018 13.887878 21.477822 44.863363 4.124963 -27.352773 32.941238 -5.903088 0.000000 0.000000 0.000000 
-0.603121 0.952403 0.629405 2.051606 13.665659 3.994316 11.921714 -0.619726 -10.402182 -4.150221 0.178747 9.792732 0.652776 7.603073 13.168703 0.000000 0.000000 0.000000 -6.714539 0.385319 -15.361872 6.377443 -1.426654 12.522584 -10.771044 -23.006719 15.083758 0.000000 0.000000 0.000000 3.165347 -3.694070 32.199970 9.985085 -2.650715 -14.436304 9.122846 9.332505 26.600317 8.608035 -1.107662 -24.697537 0.000000 0.000000 0.000000 -24.135575 -13.559602 1.075728 -42.845716 -18.592271 0.665603 -67.044762 -77.086600 55.788542 0.000000 0.000000 0.000000 7.549104 28.735053 13.924821 23.241377 44.824099 4.648135 -27.986130 36.083093 -6.653929 0.000000 0.000000 0.000000 
-0.603495 0.952847 0.629768 2.102509 14.416285 3.806459 11.616108 -0.642404 -10.185631 -4.156441 0.168269 9.624389 0.366909 7.230257 13.119126 0.000000 0.000000 0.000000 -6.802890 0.339262 -14.757191 6.390184 -1.435904 12.096905 -10.981063 -23.250186 15.348132 0.000000 0.000000 0.000000 3.032777 -3.685267 31.974774 10.049193 -2.681218 -14.289430 9.160220 9.096436 26.565559 8.148542 -0.909672 -24.092371 0.000000 0.000000 0.000000 -24.450037 -13.715314 1.069363 -42.559146 -19.083368 0.858819 -64.216190 -77.667788 53.739013 0.000000 0.000000 0.000000 7.537461 28.506067 13.824833 25.559715 44.293707 5.295225 -28.927784 39.157010 -7.498787 0.000000 0.000000 0.000000 
-0.603993 0.952949 0.630028 2.041839 15.110069 3.474166 11.478607 -0.654927 -9.960721 -4.221164 0.159316 9.784793 0.102553 6.793060 12.852114 0.000000 0.000000 0.000000 -6.929155 0.289319 -14.208986 6.529784 -1.483478 11.814098 -11.298100 -23.667107 15.686750 0.000000 0.000000 0.000000 2.863413 -3.694999 31.990815 10.407267 -2.784430 -14.406808 8.954457 9.000094 26.530794 7.997205 -0.821836 -23.871383 0.000000 0.000000 0.000000 -24.276029 -13.632358 0.967413 -42.784119 -19.279492 0.930747 -64.773005 -77.901760 54.341057 0.000000 0.000000 0.000000 8.026795 28.064053 13.837906 27.074526 43.740081 5.618976 -29.468737 42.120347 -8.260118 0.000000 0.000000 0.000000 
-0.604562 0.953077 0.630172 2.066472 15.823085 3.248371 11.187660 -0.670221 -9.732723 -4.162572 0.139876 9.633867 -0.179596 6.343901 12.626839 0.000000 0.000000 0.000000 -6.911620 0.261688 -13.598083 6.394999 -1.457130 11.489197 -11.574720 -24.031998 15.903218 0.000000 0.000000 0.000000 2.791143 -3.693919 31.746345 10.458317 -2.795760 -14.365092 8.857035 8.860729 26.231822 7.825044 -0.735172 -23.587131 0.000000 0.000000 0.000000 -24.605231 -13.725171 0.900263 -42.473827 -19.379392 1.017054 -65.696109 -78.132443 55.314516 0.000000 0.000000 0.000000 8.956996 27.548551 14.005584 28.086573 42.773527 5.598162 -29.854312 44.723603 -8.913224 0.000000 0.000000 0.000000 
-0.605029 0.953169 0.630195 2.147613 16.227158 3.186406 10.954028 -0.679116 -9.598427 -4.057695 0.115416 9.642645 -0.543521 5.719459 12.392488 0.000000 0.000000 0.000000 -7.080179 0.222597 -13.295813 6.357554 -1.450743 11.298394 -11.757439 -24.304351 15.937576 0.000000 0.000000 0.000000 2.675657 -3.662622 31.563734 10.611558 -2.829993 -14.471171 8.561291 8.758759 25.959763 7.557738 -0.540983 -23.705387 0.000000 0.000000 0.000000 -24.754446 -13.755606 0.863354 -42.255792 -19.028983 0.931860 -68.666160 -78.523599 58.316177 0.000000 0.000000 0.000000 9.551046 27.267731 14.126601 28.106714 41.888250 5.321887 -30.751597 46.408898 -9.639232 0.000000 0.000000 0.000000 
-0.605354 0.953197 0.630168 2.284776 16.540626 3.084480 10.655337 -0.683302 -9.452509 -3.984674 0.099543 9.593834 -0.652393 5.521241 12.247186 0.000000 0.000000 0.000000 -7.275072 0.182076 -12.966505 6.247186 -1.417533 11.039893 -11.986557 -24.598324 16.240602 0.000000 0.000000 0.000000 2.672126 -3.641886 31.302497 10.598033 -2.824420 -14.432965 8.205557 8.603286 25.645197 7.435193 -0.505925 -23.470110 0.000000 0.000000 0.000000 -25.194118 -13.825495 0.828171 -42.143333 -18.459558 0.809750 -75.988437 -78.445304 65.004009 0.000000 0.000000 0.000000 9.959003 26.944563 14.145565 27.242863 41.507640 4.920605 -31.636505 46.734141 -10.081140 0.000000 0.000000 0.000000 
-0.605587 0.953548 0.630100 2.466603 16.847571 3.102127 10.251934 -0.686507 -9.170942 -3.733817 0.074051 9.086403 -1.134649 4.808497 12.270215 0.000000 0.000000 0.000000 -7.494553 0.140637 -12.774600 6.113766 -1.382390 10.848308 -12.071283 -24.668289 16.440437 0.000000 0.000000 0.000000 2.683908 -3.643239 31.129543 10.566977 -2.801478 -14.479242 7.886534 8.283554 25.205309 7.102161 -0.324400 -23.513142 0.000000 0.000000 0.000000 -25.570064 -13.846953 0.836453 -42.278714 -18.087290 0.743881 -79.991803 -78.100069 68.496610 0.000000 0.000000 0.000000 10.128491 26.852230 14.152559 25.911777 41.188800 4.438788 -33.024264 46.119953 -10.527087 0.000000 0.000000 0.000000 
-0.606123 0.953942 0.629909 2.574568 16.944678 3.019117 10.122007 -0.679352 -8.803352 -3.718421 0.085497 8.644942 -1.235175 4.629436 12.198986 0.000000 0.000000 0.000000 -7.672562 0.110124 -12.597654 6.110557 -1.380314 10.768999 -12.233468 -24.966269 16.319026 0.000000 0.000000 0.000000 2.744827 -3.647420 31.017227 10.595478 -2.821348 -14.386437 7.486497 8.233832 24.883867 7.267432 -0.459624 -23.321256 0.000000 0.000000 0.000000 -25.733689 -13.748537 0.748314 -42.637274 -17.740431 0.676149 -84.317313 -77.706385 72.209381 0.000000 0.000000 0.000000 10.515811 26.786405 14.279165 23.131825 41.169574 3.604412 -34.251000 44.130969 -10.573815 0.000000 0.000000 0.000000 
-0.607153 0.954190 0.629517 2.528630 16.701446 3.107892 10.074791 -0.671714 -8.629136 -3.606939 0.084683 8.338517 -1.360174 4.374577 12.139159 0.000000 0.000000 0.000000 -7.772001 0.108210 -12.620441 6.235954 -1.395554 10.658634 -12.168093 -24.884721 16.312803 0.000000 0.000000 0.000000 2.951468 -3.616620 30.581165 10.325053 -2.818766 -13.708411 7.051382 8.094505 24.067838 7.345315 -0.589432 -23.098457 0.000000 0.000000 0.000000 -25.656108 -13.607990 0.774765 -43.036237 -17.356015 0.583917 -88.659289 -77.436459 76.179945 0.000000 0.000000 0.000000 10.576148 27.001256 14.377137 20.739265 41.870374 3.067997 -34.918367 40.784399 -9.971908 0.000000 0.000000 0.000000 
-0.608825 0.954270 0.629025 2.680081 16.568530 3.177676 10.024762 -0.666131 -8.449647 -3.670122 0.099615 8.214457 -1.158160 4.559823 11.877672 0.000000 0.000000 0.000000 -7.847673 0.101990 -12.769303 6.372822 -1.430703 10.746116 -12.322140 -25.120000 16.473583 0.000000 0.000000 0.000000 2.827468 -3.552280 30.504135 10.364405 -2.781020 -14.097069 6.760543 7.946401 24.268273 7.350905 -0.615505 -23.132711 0.000000 0.000000 0.000000 -25.695774 -13.612409 0.839947 -43.244824 -17.369721 0.556760 -93.272802 -77.590498 80.944430 0.000000 0.000000 0.000000 10.806896 27.112438 14.499517 18.058944 42.602608 2.366350 -35.341136 37.931719 -9.393197 0.000000 0.000000 0.000000 
-0.611064 0.954461 0.628564 2.712022 16.505219 3.245439 10.013926 -0.671127 -8.700489 -3.570998 0.073886 8.591572 -1.223732 4.336107 11.639685 0.000000 0.000000 0.000000 -7.729700 0.122163 -12.793457 6.429052 -1.423651 10.450872 -12.064850 -24.711603 16.369282 0.000000 0.000000 0.000000 3.107534 -3.573597 30.149248 10.189960 -2.759466 -13.788726 6.205007 7.653274 23.951876 7.115483 -0.512410 -23.157122 0.000000 0.000000 0.000000 -25.823857 -13.741802 1.000853 -43.270449 -17.235499 0.528245 -97.315978 -77.716690 85.204060 0.000000 0.000000 0.000000 10.846042 27.319640 14.580004 16.097936 43.451266 1.898612 -35.828147 35.089135 -8.775823 0.000000 0.000000 0.000000 
-0.613722 0.954583 0.628121 2.638853 16.377887 3.225617 10.089143 -0.673350 -8.976235 -3.387892 0.024114 9.290637 -1.126411 4.291559 11.244878 0.000000 0.000000 0.000000 -7.712685 0.129554 -12.848177 6.764207 -1.486414 10.193259 -11.997368 -24.572727 16.540306 0.000000 0.000000 0.000000 3.061796 -3.528269 30.020682 10.119471 -2.740230 -13.766276 6.014693 7.497250 24.086503 7.099637 -0.569672 -22.927792 0.000000 0.000000 0.000000 -25.819768 -13.869399 1.155225 -43.163581 -17.290679 0.516958 -101.771691 -77.866048 89.963181 0.000000 0.000000 0.000000 10.663687 27.478492 14.553756 14.863193 43.763854 1.563760 -36.548238 33.899343 -8.658480 0.000000 0.000000 0.000000 
-0.616475 0.954759 0.627778 2.525709 16.272844 3.134961 10.134462 -0.673728 -9.202350 -3.283263 -0.015442 9.931991 -1.058293 4.158604 10.758766 0.000000 0.000000 0.000000 -7.427409 0.172625 -12.786667 6.792631 -1.473341 9.941353 -12.031166 -24.622568 16.629767 0.000000 0.000000 0.000000 3.222164 -3.540469 29.861015 9.926943 -2.692853 -13.614955 5.778625 7.282707 24.238615 7.138267 -0.673022 -22.672283 0.000000 0.000000 0.000000 -25.745872 -13.861748 1.253807 -43.018845 -17.520411 0.553211 -106.472543 -77.962525 95.008262 0.000000 0.000000 0.000000 10.644653 27.522023 14.527349 13.981247 44.170660 1.321439 -37.467403 33.618335 -8.842165 0.000000 0.000000 0.000000 
-0.618905 0.954860 0.627334 2.401716 16.145962 3.184658 10.345314 -0.679286 -9.617739 -3.271928 -0.045086 10.655681 -1.059832 4.126935 10.735613 0.000000 0.000000 0.000000 -7.225811 0.206915 -12.947615 6.989579 -1.505197 9.753614 -11.714774 -24.089874 16.673194 0.000000 0.000000 0.000000 3.208748 -3.490547 29.632013 9.773192 -2.675541 -13.343532 5.639233 7.249625 24.250803 7.072036 -0.686270 -22.399371 0.000000 0.000000 0.000000 -25.607299 -13.992550 1.379772 -42.724745 -17.686117 0.589122 -111.227304 -77.989075 100.054756 0.000000 0.000000 0.000000 10.572903 27.376468 14.422633 14.161803 44.236614 1.384683 -38.512908 34.214010 -9.299671 0.000000 0.000000 0.000000 
-0.620851 0.954870 0.626818 2.350105 16.039334 3.315499 10.524198 -0.687054 -10.054877 -3.395245 -0.047597 11.236144 -0.756778 4.453512 10.403728 0.000000 0.000000 0.000000 -6.915941 0.256712 -13.117787 7.069329 -1.522555 9.773464 -11.720162 -24.219877 16.160145 0.000000 0.000000 0.000000 3.270510 -3.483320 29.503258 9.504389 -2.589115 -13.262178 5.751669 7.136575 24.343246 7.189619 -0.816125 -22.186118 0.000000 0.000000 0.000000 -25.144308 -13.840555 1.403496 -42.808289 -17.895524 0.604722 -115.271306 -78.116129 104.527079 0.000000 0.000000 0.000000 10.509234 27.057979 14.230313 14.277915 44.105110 1.396649 -38.793075 35.637041 -9.820383 0.000000 0.000000 0.000000 
-0.622166 0.954594 0.626182 2.214856 15.849830 3.198294 10.637925 -0.680992 -10.206306 -3.411674 -0.058238 11.645614 -0.628551 4.754174 10.640029 0.000000 0.000000 0.000000 -6.657818 0.297834 -13.167643 7.081278 -1.529229 9.934590 -11.505288 -23.914675 15.966158 0.000000 0.000000 0.000000 3.196939 -3.452696 29.549775 9.448936 -2.618088 -12.923069 5.903720 7.297998 24.318399 7.003028 -0.720776 -22.022996 0.000000 0.000000 0.000000 -25.182795 -13.850503 1.394203 -42.722370 -17.995871 0.642458 -116.186511 -78.290600 105.682176 0.000000 0.000000 0.000000 10.547082 26.893919 14.164417 14.845820 43.915129 1.550019 -38.738435 37.132712 -10.274178 0.000000 0.000000 0.000000 
